<svg width="33" height="35" fill="none" xmlns="http://www.w3.org/2000/svg"><path d="M32.69 18.077a3.302 3.302 0 0 0-1.715-2.945L5.915 1.27C4.793.632 3.468.706 2.406 1.427c-1.08.732-1.638 2.481-1.34 3.747l2.315 9.823a2.228 2.228 0 0 0 2.173 1.717l13.968-.003a1.255 1.255 0 0 1 1.277 1.284 1.303 1.303 0 0 1-1.293 1.285l-13.98-.007a2.262 2.262 0 0 0-2.194 1.716L.878 30.838a3.264 3.264 0 0 0 .855 3.151c.096.097.204.206.313.291 1.062.824 2.455.933 3.647.302L30.916 21a3.357 3.357 0 0 0 1.775-2.922l-.001-.001Z" fill="#7C01F6"/></svg>